<svg xmlns="http://www.w3.org/2000/svg" viewBox="0 0 99.69 96"><defs><style>.cls-1{fill:#42af65}</style></defs><g id="Camada_2" data-name="Camada 2"><g id="Camada_1-2" data-name="Camada 1"><path class="cls-1" d="M48 15.69a15.68 15.68 0 0 0-31.34-.87c-.32 0-.64-.05-1-.05a15.68 15.68 0 0 0-.92 31.34H48V15.69z"/><path d="M51.69 15.69A15.68 15.68 0 0 1 83 14.82c.32 0 .64-.05 1-.05a15.68 15.68 0 0 1 .92 31.34H51.69V16.62h.05c-.02-.31-.05-.62-.05-.93zM48 80.31a15.68 15.68 0 0 1-31.34.87h-1a15.68 15.68 0 0 1-.92-31.34H48v30.47z" fill="#a0cfaa" opacity=".5"/><path class="cls-1" d="M51.69 80.31a15.68 15.68 0 0 0 31.31.87h1a15.68 15.68 0 0 0 .92-31.34H51.69v29.54h.05c-.02.31-.05.62-.05.93z"/></g></g></svg>