<?xml version="1.0" ?><svg data-name="Design Convert" id="Design_Convert" viewBox="0 0 64 64" xmlns="http://www.w3.org/2000/svg"><defs><style>.cls-1{fill:#010101;}</style></defs><title/><path class="cls-1" d="M55,28H34a1,1,0,0,1,0-2H55a1,1,0,0,1,0,2Z"/><path class="cls-1" d="M28,57a1,1,0,0,1-.45-.11L8.66,47.45A3,3,0,0,1,7,44.76V10a3,3,0,0,1,3-3h9a1,1,0,0,1,0,2H11.34l17.09,8.1A1,1,0,0,1,29,18V56a1,1,0,0,1-.47.85A1,1,0,0,1,28,57ZM9,10.11V44.76a1,1,0,0,0,.55.9L27,54.38V18.63Z"/><path class="cls-1" d="M47,37a1,1,0,0,1-.71-.29,1,1,0,0,1,0-1.42L54.59,27l-8.3-8.29a1,1,0,0,1,1.42-1.42l9,9a1,1,0,0,1,0,1.42l-9,9A1,1,0,0,1,47,37Z"/><path class="cls-1" d="M37,47H28a1,1,0,0,1,0-2h9a1,1,0,0,0,1-1V36a1,1,0,0,1,2,0v8A3,3,0,0,1,37,47Z"/><path class="cls-1" d="M39,19a1,1,0,0,1-1-1V10a1,1,0,0,0-1-1H15a1,1,0,0,1,0-2H37a3,3,0,0,1,3,3v8A1,1,0,0,1,39,19Z"/></svg>